<svg width="102" height="100" viewBox="0 0 102 100" fill="none" xmlns="http://www.w3.org/2000/svg">
<circle cx="50" cy="50" r="50" fill="url(#paint0_linear_71_221)"/>
<path d="M16.3792 82.4712V81.1646C17.8703 80.9572 19.175 80.4595 20.2933 79.6714C21.4117 78.9248 22.2608 77.5767 22.8407 75.6272C23.462 73.7192 23.7726 70.9609 23.7726 67.3523V33.3191C23.7726 31.7844 23.6691 30.6645 23.462 29.9594C23.2549 29.2128 22.8199 28.715 22.1572 28.4662C21.5359 28.1758 20.604 28.0099 19.3614 27.9684V26.7241C20.4797 26.7655 21.9708 26.807 23.8347 26.8485C25.6986 26.89 27.6661 26.9107 29.7371 26.9107C31.8081 26.9107 33.8376 26.89 35.8258 26.8485C37.8554 26.807 39.5122 26.7655 40.7962 26.7241V27.9684C39.5536 28.0099 38.6009 28.1758 37.9382 28.4662C37.3169 28.715 36.9027 29.2128 36.6956 29.9594C36.4885 30.6645 36.385 31.7844 36.385 33.3191V56.0909C36.385 57.7915 36.385 59.6373 36.385 61.6282C36.4264 63.5777 36.3643 65.4857 36.1986 67.3523C36.0743 69.2188 35.7844 70.8779 35.3288 72.3297C34.4175 75.1917 32.4087 77.5975 29.3022 79.547C26.1957 81.4964 21.888 82.4712 16.3792 82.4712Z" fill="white"/>
<path d="M64.5701 26.7241C73.2683 26.7241 79.7091 28.5906 83.8925 32.3237C88.1173 36.0152 90.2297 41.3245 90.2297 48.2514C90.2297 52.7726 89.1942 56.7338 87.1232 60.135C85.0522 63.4948 82.0493 66.1079 78.1144 67.9745C74.2209 69.841 69.5198 70.7742 64.0109 70.7742C63.3482 70.7742 62.4577 70.7535 61.3393 70.712C60.2624 70.6706 59.1234 70.6498 57.9222 70.6498C56.721 70.6083 55.6441 70.5876 54.6914 70.5876C52.6204 70.5876 50.5909 70.6083 48.6027 70.6498C46.656 70.6498 45.082 70.6913 43.8808 70.7742V69.5299C45.1649 69.4469 46.1175 69.281 46.7388 69.0322C47.3601 68.7833 47.7743 68.2855 47.9814 67.5389C48.1885 66.7923 48.2921 65.6724 48.2921 64.1792V33.3191C48.2921 31.7844 48.1885 30.6645 47.9814 29.9594C47.7743 29.2128 47.3394 28.715 46.6767 28.4662C46.0554 28.1758 45.1234 28.0099 43.8808 27.9684V26.7241C45.082 26.7655 46.656 26.8278 48.6027 26.9107C50.5909 26.9522 52.579 26.9522 54.5672 26.9107C56.0997 26.8692 57.8186 26.8278 59.724 26.7863C61.6707 26.7448 63.2861 26.7241 64.5701 26.7241ZM65.502 27.844C63.5967 27.844 62.3541 28.1965 61.7742 28.9017C61.1944 29.6068 60.9044 31.0378 60.9044 33.1947V64.3036C60.9044 66.4605 61.1944 67.8915 61.7742 68.5966C62.3955 69.3018 63.6588 69.6543 65.5642 69.6543C68.3807 69.6543 70.6381 68.8455 72.3363 67.2278C74.0345 65.5687 75.2564 63.1629 76.002 60.0106C76.789 56.8582 77.1825 53.0214 77.1825 48.5003C77.1825 43.8547 76.7683 40.0179 75.9399 36.99C75.1529 33.9206 73.8896 31.6393 72.1499 30.146C70.4517 28.6113 68.2358 27.844 65.502 27.844Z" fill="white"/>
<defs>
<linearGradient id="paint0_linear_71_221" x1="7.18391" y1="17.9598" x2="100" y2="80.8908" gradientUnits="userSpaceOnUse">
<stop stop-color="#006B56"/>
<stop offset="1" stop-color="#416276"/>
</linearGradient>
</defs>
</svg>
